<svg width="58" height="70" viewBox="0 0 58 70" fill="none" xmlns="http://www.w3.org/2000/svg">
<path d="M29.0752 68.8466C57.3632 58.4798 57.1761 34.0638 57.1761 34.0638V7.64907C57.1761 7.64907 36.8192 8.8983 29.0752 1.1543C21.3324 8.8983 0.974275 7.64907 0.974275 7.64907V34.0638C0.974275 34.0638 0.787201 58.4811 29.0752 68.8466Z" fill="#25A75C" stroke="#22202D" stroke-width="1.52426" stroke-miterlimit="10" stroke-linecap="round" stroke-linejoin="round"/>
<path d="M28.2629 59.0424C10.0857 50.4873 9.71643 34.6879 9.71643 34.0627V16.3236L11.4026 16.2005C17.2183 15.8496 22.9264 14.4746 28.2641 12.139L29.0764 11.7698L29.8887 12.139C35.2264 14.4746 40.9345 15.8496 46.7503 16.2005L48.4364 16.3236V34.059C48.4364 34.7458 48.0672 50.4824 29.89 59.0436L29.0777 59.4129L28.2629 59.0424Z" fill="#F7F7F7" stroke="#22202D" stroke-width="1.52426" stroke-linecap="round" stroke-linejoin="round"/>
<path d="M16.6481 34.0639L24.3921 41.7427L41.4998 24.635" stroke="#25A75C" stroke-width="4.57277" stroke-miterlimit="10" stroke-linecap="round" stroke-linejoin="round"/>
</svg>
